<svg width="56" height="60" viewBox="0 0 56 60" fill="none" xmlns="http://www.w3.org/2000/svg">
<path d="M46.2963 52.059C46.3974 52.0212 46.5112 51.9707 46.6249 51.9202C46.5744 52.3115 46.2331 52.5387 45.9297 52.4125C45.8539 52.3746 45.7022 52.3999 45.639 52.4504C45.3483 52.7028 45.0955 52.9932 44.8048 53.2457C44.2486 53.738 43.6924 54.2429 43.0984 54.6974C41.7838 55.7073 40.267 56.3259 38.8134 57.0833C38.1435 57.4368 37.4483 57.7902 36.7531 58.0301C35.1857 58.5476 33.5425 58.8885 31.9498 59.3303C31.4695 59.4565 31.0145 59.7217 30.5215 59.8226C29.9653 59.9363 29.3713 59.9489 28.8025 59.9489C27.6269 59.9741 26.4388 59.911 25.2632 59.9867C23.5948 60.0877 22.0021 59.5828 20.3842 59.4565C18.8042 59.3303 17.4011 58.838 15.9981 58.2068C14.4181 57.5125 12.7496 56.9823 11.2454 56.1365C8.57837 54.6469 6.01244 52.9932 4.06587 50.5189C2.97882 49.1303 2.13194 47.6533 1.51258 46.0249C1.08281 44.9014 0.855293 43.7021 0.539291 42.5534C0.0210491 40.7103 0.10953 38.8798 0.00840946 37.0242C-0.0421508 35.9638 0.134809 34.9286 0.551931 33.9313C0.754172 33.4516 0.817373 32.9088 0.893213 32.3912C0.981694 32.2019 1.08281 31.9999 1.15865 31.8105C1.34826 31.3687 2.08138 31.1794 2.58698 31.2677C2.91562 31.3182 3.30746 31.1036 3.63611 30.9521C4.04059 30.7628 4.50827 30.8385 4.77371 31.2046C4.88747 31.3561 5.05179 31.4823 5.20347 31.6086C5.24139 31.3435 5.27931 31.0657 5.29195 30.8006C5.29195 30.7249 5.22875 30.6492 5.19083 30.5734C5.54475 30.3967 5.8734 30.586 5.83548 30.9395C5.79756 31.2677 5.79755 31.5202 6.16412 31.6717C6.26524 31.7096 6.30316 31.9368 6.34108 32.0883C6.5054 32.7321 6.58124 33.4138 6.80876 34.0323C7.17532 35.0422 7.327 36.0647 7.15004 37.1125C6.85932 38.8041 7.30172 40.3947 7.80732 41.9727C8.22445 43.2982 8.90701 44.51 9.84237 45.5199C10.7398 46.492 11.751 47.4135 12.8507 48.1204C14.3422 49.0798 15.9475 49.8499 17.5275 50.6578C20.1819 52.0338 23.0765 52.5892 26.0216 52.7533C27.2225 52.8165 28.4485 52.7281 29.6746 52.5766C30.8501 52.4377 31.9878 52.2484 33.1127 51.958C34.9961 51.4783 36.8036 50.8093 38.4215 49.6858C39.0535 49.2439 39.8625 49.0546 40.3428 48.3603C40.5577 48.0447 40.8232 47.7543 41.0633 47.4514C41.6068 46.7192 42.2515 46.0375 42.6686 45.2296C43.3259 43.9798 43.8188 42.6417 44.375 41.3415C45.0323 39.8392 45.1587 38.2613 45.0955 36.6581C45.0829 36.2793 44.868 35.9259 44.8048 35.5472C44.7289 35.118 44.7163 34.6761 44.6657 34.2343C44.6152 33.7925 44.5646 33.3506 44.5267 32.9088C44.9944 32.4544 45.5758 32.1009 45.8413 31.5959C46.0309 31.2172 46.1573 31.0784 46.5112 31.1541C46.6123 31.1794 46.6755 31.3687 46.8272 31.5707C47.3581 31.6591 47.4971 31.5581 47.4465 31.0405C47.5097 30.9774 47.5729 30.9143 47.6361 30.8511C47.8131 31.1162 47.9901 31.3813 48.1923 31.6843C48.344 31.4318 48.3566 30.9143 48.8117 31.1541C49.0771 31.293 49.2288 31.6338 49.5448 31.861C49.4816 31.4571 49.431 31.0531 49.3678 30.6365C49.3805 30.6239 49.4058 30.5987 49.4184 30.586C49.5954 31.0152 49.7723 31.4445 49.9998 31.9494C50.0883 31.6212 50.1389 31.4192 50.2021 31.2299C50.3411 31.4066 50.4802 31.5833 50.6318 31.7474C51.3397 32.5175 51.2638 33.5526 51.5798 34.4615C51.6304 34.6004 51.6683 34.7393 51.82 34.8781C51.8453 34.7897 51.8832 34.714 51.9211 34.6004C51.9464 34.6509 51.9843 34.6888 51.9843 34.7266C52.0349 35.8501 51.9338 37.0115 52.1739 38.0972C52.4267 39.1954 52.1234 40.1927 51.9338 41.19C51.7189 42.3009 51.2638 43.3739 50.8973 44.4469C50.6066 45.318 50.379 46.2142 49.9493 47.0222C49.4816 47.9058 48.8622 48.7264 48.2429 49.5343C47.6109 50.3675 46.903 51.1627 46.2331 51.9707C46.2457 51.9959 46.271 52.0338 46.2963 52.059Z" fill="white"/>
<path d="M46.8272 2.19522C47.4213 2.49819 48.0407 2.73805 48.5842 3.10413C49.8482 3.96255 51.1375 4.82096 52.0223 6.09596C52.5658 6.87863 53.0461 7.73705 53.4127 8.60809C53.8298 9.63061 54.0953 10.7036 54.3986 11.7766C54.5124 12.168 54.5377 12.5593 54.4492 13.0138C54.3228 13.7333 54.4113 14.5034 54.4113 15.1346C54.5124 15.0336 54.6767 14.8695 54.841 14.6927C54.9169 14.7306 54.9927 14.7811 55.0685 14.819C54.8789 15.7153 54.7273 16.6242 54.4997 17.5205C54.2343 18.5177 53.893 19.5024 53.6023 20.487C53.5264 20.7521 53.5896 21.0425 53.5138 21.3076C53.4 21.7115 53.2231 22.0902 53.0714 22.4942C53.1599 22.5068 53.2357 22.5068 53.3368 22.5195C53.2736 22.5826 53.2231 22.6331 53.1599 22.6709C52.5279 23.0244 52.0223 23.4915 51.6936 24.1479C51.2386 25.0568 50.3412 25.4608 49.5322 25.9279C48.521 26.5212 47.4719 27.0261 46.4101 27.5185C46.1194 27.6573 45.7528 27.6321 45.4242 27.6321C44.059 27.6321 42.6813 27.5563 41.3162 27.6068C39.7361 27.6699 38.3078 27.1902 36.8289 26.7358C36.0705 26.5086 35.5523 26.0794 34.9708 25.6375C34.402 25.2083 33.7068 24.918 33.2139 24.413C32.6577 23.8323 32.2532 23.1001 31.7982 22.4311C31.7097 22.3049 31.6465 22.1534 31.5833 22.0145C31.0651 21.0299 30.5974 20.0326 30.0412 19.0732C29.3839 17.9497 29.2575 16.6873 28.9921 15.4628C28.9036 15.0336 28.9668 14.5539 29.0427 14.112C29.1438 13.4556 29.2955 12.8118 29.4345 12.168C29.4471 12.1301 29.4598 12.0922 29.4345 12.067C28.9289 11.0823 29.839 10.4007 29.9654 9.55487C30.0412 9.08779 30.5342 8.69646 30.2308 8.14101C30.1803 8.05264 30.3572 7.82541 30.4331 7.67393C30.9892 6.60091 31.6339 5.59101 32.4555 4.6821C32.8347 4.26552 33.0748 3.7227 33.4035 3.25562C33.5552 3.04102 33.7448 2.85166 33.947 2.70017C35.2363 1.76602 36.6014 0.806613 38.2193 0.819236C39.5213 0.83186 40.583 0.162802 41.8091 0.0365643C42.9846 -0.0896731 44.1349 0.0996833 45.0702 0.781366C45.6643 1.2232 46.132 1.85438 46.8146 2.20785C46.6629 2.16998 46.3975 2.08161 46.3848 2.10686C46.2205 2.47295 46.0309 2.15735 45.9803 2.09423C45.4621 1.3873 44.6911 1.09696 43.9074 0.819236C43.0478 0.516266 42.163 0.680375 41.2909 0.705622C41.3541 0.793989 41.4299 0.844484 41.5058 0.857108C42.2642 1.02122 43.0478 1.09696 43.7557 1.34943C44.7416 1.7029 45.7402 2.11948 46.0941 3.29349C46.132 3.43235 46.3216 3.58384 46.4733 3.64696C46.6376 3.7227 46.8525 3.71007 47.0421 3.73532C46.9789 3.55859 46.9663 3.33136 46.8525 3.20512C46.5744 2.94003 46.2458 2.7128 45.9424 2.47295C45.9677 2.43508 45.993 2.39721 46.0183 2.35933C46.6882 2.73805 47.3455 3.11676 48.0154 3.49547C48.0533 3.43235 48.0912 3.38186 48.1291 3.31874C47.7373 3.05364 47.3455 2.78854 46.9536 2.53607C46.8146 2.47295 46.625 2.40983 46.8272 2.19522ZM43.1869 20.6764C44.236 20.4997 45.993 20.2093 47.1179 18.5682C47.4719 18.0507 47.9143 17.5583 48.1418 16.9776C48.3946 16.3338 48.6347 15.6016 48.5842 14.9326C48.4578 13.4304 47.6741 12.1427 46.5997 11.1328C45.4242 10.0346 44.097 9.10041 42.8456 8.09051C42.7318 8.00215 42.656 7.86329 42.5802 7.74967C42.4664 7.57294 42.4158 7.29522 42.2642 7.24472C41.847 7.08061 41.392 6.91651 40.9496 6.92913C40.0774 6.95438 39.2811 7.37096 38.687 7.9264C37.3977 9.11304 36.4371 10.5774 35.8557 12.2437C35.3248 13.7333 35.0467 15.2482 36.0832 16.6747C36.2601 16.9145 36.3992 17.1922 36.5888 17.4195C37.2081 18.1264 37.7643 18.9596 38.5227 19.4771C39.6603 20.2598 40.9875 20.8026 43.1869 20.6764Z" fill="white"/>
<path d="M5.68384 2.80118C5.51951 2.56133 5.38047 2.35935 5.24143 2.15737C5.27935 2.11949 5.32991 2.08162 5.36783 2.04375C5.78496 2.32148 6.46752 1.76603 6.70768 2.64969C6.73296 2.5992 6.77088 2.53608 6.79616 2.48558C6.78352 2.37197 6.78352 2.25836 6.75824 2.05638C6.96048 2.15737 7.15008 2.19524 7.27648 2.30885C8.21185 3.10415 9.14721 3.89944 10.0573 4.73261C10.525 5.16182 10.9168 5.65414 11.3592 6.1086C11.9786 6.72716 12.5979 7.3331 13.2299 7.92642C13.3563 8.05266 13.5333 8.14102 13.6597 8.22939C14.4308 7.16899 15.1512 6.12122 15.9223 5.13657C16.3015 4.65687 16.7818 4.27816 17.2368 3.8742C17.7298 3.44499 18.2354 3.01578 18.7663 2.63707C19.1961 2.3341 19.2213 2.35935 19.373 2.80118C19.9165 2.70019 20.4474 2.61182 20.9783 2.51083C20.8645 1.8039 21.0541 1.63979 21.8505 1.71553C21.7114 2.04375 21.5471 2.37197 21.446 2.72543C21.4081 2.83905 21.4965 3.09152 21.5977 3.14202C22.1159 3.40712 22.1665 3.89944 22.3182 4.37915C22.4698 4.87147 22.7353 5.32593 22.9249 5.80563C23.0134 6.02023 23.0892 6.29796 23.026 6.51256C22.5204 8.54498 21.6482 10.4133 20.5359 12.168C20.2957 12.5593 20.0682 12.9633 19.8786 13.3799C19.8281 13.5061 19.8407 13.746 19.9292 13.8343C21.6229 15.6774 23.2788 17.5331 25.0358 19.313C26.0849 20.3734 27.2857 21.2697 28.3727 22.2922C28.6508 22.5573 28.7646 22.9992 28.9415 23.3653C29.1185 23.7314 29.1943 24.1732 29.4471 24.4762C29.8895 25.019 30.1297 25.6123 30.2055 26.3066C30.2308 26.5591 30.3572 26.7863 30.4078 26.963C30.1929 27.2155 30.0159 27.4301 29.839 27.6447C29.8516 27.6573 29.8769 27.67 29.8895 27.6826C29.7126 27.8719 29.5103 28.036 29.3839 28.2507C29.2449 28.4653 29.1817 28.7304 29.0806 28.9702C29.0427 28.9071 29.0174 28.8566 28.9795 28.7935C28.6761 28.7682 28.3475 28.6294 28.0947 28.7304C27.6902 28.8818 27.3868 29.2101 27.627 29.8665C27.1846 29.7529 26.8559 29.6771 26.5146 29.5888C26.4641 29.5761 26.3882 29.5383 26.363 29.5509C25.7183 30.0054 25.3518 29.3742 25.0105 29.0964C23.7338 28.0613 22.5077 26.963 21.3196 25.8143C19.55 24.1101 17.8309 22.3554 16.0992 20.6133C15.6948 20.2219 15.6442 20.2472 15.3156 20.7143C14.3296 22.1029 13.3437 23.5041 12.2946 24.8549C12.0165 25.2083 11.5109 25.4103 11.0811 25.6375C10.841 25.7638 10.5629 25.8143 10.2722 25.9153C10.1711 25.7259 10.2722 25.3346 9.86769 25.2967C9.85505 25.2967 9.86769 25.0568 9.86769 24.8801C9.51377 24.9306 8.91969 25.3851 9.04609 24.3247C8.62897 24.5898 8.31297 24.7791 7.88321 25.0568C7.55456 25.0695 7.3776 24.2994 6.77088 24.514C6.77088 24.514 6.60656 24.2489 6.63184 24.1353C6.77088 23.4789 6.73296 23.4158 6.0504 23.5167C6.25264 22.9865 5.96192 22.8477 5.55743 22.8729C5.39311 22.5321 5.31727 22.166 5.08975 21.9262C4.77375 21.5853 5.02655 21.3707 5.15295 21.093C5.30463 20.7774 5.44367 20.4618 5.58272 20.1462C5.62064 20.0705 5.64592 19.9821 5.69648 19.919C6.83408 18.3284 7.97169 16.7378 9.09665 15.1472C9.29889 14.8695 9.45057 14.5413 9.53905 14.213C9.57697 14.0994 9.40001 13.8722 9.27361 13.7586C8.11073 12.6351 6.92256 11.5368 5.75968 10.4007C5.03919 9.69374 4.30607 8.97419 3.68671 8.16627C3.1811 7.49721 2.78926 6.73979 2.4227 5.96974C2.15726 5.42692 2.43534 4.84623 2.1067 4.3539C2.09406 4.32865 2.24574 4.17717 2.33422 4.10142C2.56174 3.91207 2.77662 3.78583 2.82718 3.39449C2.87774 3.0284 3.32015 2.83905 3.74991 2.96529C4.47039 3.17989 5.08975 3.00316 5.68384 2.80118Z" fill="white"/>
</svg>
