<svg width="738" height="856" viewBox="0 0 738 856" fill="none" xmlns="http://www.w3.org/2000/svg">
<path d="M470.18 48.9998C470.18 48.9998 552.68 62.5 582.18 80.4998C611.68 98.4995 750.28 286.8 734.68 430C719.08 573.2 708.18 643.333 704.68 660.5C704.68 660.5 599.18 660.5 591.18 652.5C583.18 644.5 605.68 359 605.68 359C605.846 378.5 602.98 369.9 582.18 315.5C572.239 289.5 585.68 517.5 580.18 652.5M155.68 652.5L147.68 315.5C139.513 333.5 123.18 360 121.68 349.5C119.411 333.616 121.68 365.5 121.68 365.5L143.679 632C143.679 632 52.1795 652.5 38.6792 652.5C13.5125 561 -9.83442 368.277 7.67916 295C26.6799 215.5 30.6796 168.5 139.679 80.4998C155.68 67.5822 258.679 48.9998 258.679 48.9998" stroke="#0E034F" stroke-width="3"/>
</svg>
