<svg width="739" height="615" viewBox="0 0 739 615" fill="none" xmlns="http://www.w3.org/2000/svg">
<path d="M471 1.99976C471 1.99976 553.5 15.5 583 33.4998C612.5 51.4995 751.1 239.8 735.5 383C719.9 526.2 709 596.333 705.5 613.5C705.5 613.5 600 613.5 592 605.5C584 597.5 606.5 312 606.5 312C606.667 331.5 603.8 322.9 583 268.5C573.059 242.5 586.5 470.5 581 605.5M156.5 605.5L148.5 268.5C140.333 286.5 124 313 122.5 302.5C120.231 286.616 122.5 318.5 122.5 318.5L144.499 585C144.499 585 52.9998 605.5 39.4995 605.5C14.3328 514 -9.01411 321.277 8.49947 248C27.5002 168.5 31.4999 121.5 140.5 33.4998C156.5 20.5822 259.5 1.99976 259.5 1.99976" stroke="#0E034F" stroke-width="3"/>
</svg>
