<svg width="735" height="856" viewBox="0 0 735 856" fill="none" xmlns="http://www.w3.org/2000/svg">
<path d="M378.001 95.5002C378.001 95.5002 356 89.9998 348.501 108.5C341.002 127 348.501 650.5 348.501 650.5" stroke="#0E034F" stroke-width="3"/>
<path d="M370.5 111.5C370.5 113.847 368.802 115.5 367 115.5C365.198 115.5 363.5 113.847 363.5 111.5C363.5 109.153 365.198 107.5 367 107.5C368.802 107.5 370.5 109.153 370.5 111.5Z" stroke="#0E034F" stroke-width="3"/>
<path d="M370.5 211.5C370.5 213.847 368.802 215.5 367 215.5C365.198 215.5 363.5 213.847 363.5 211.5C363.5 209.153 365.198 207.5 367 207.5C368.802 207.5 370.5 209.153 370.5 211.5Z" stroke="#0E034F" stroke-width="3"/>
<path d="M370.5 311.5C370.5 313.847 368.802 315.5 367 315.5C365.198 315.5 363.5 313.847 363.5 311.5C363.5 309.153 365.198 307.5 367 307.5C368.802 307.5 370.5 309.153 370.5 311.5Z" stroke="#0E034F" stroke-width="3"/>
<path d="M370.5 411.5C370.5 413.847 368.802 415.5 367 415.5C365.198 415.5 363.5 413.847 363.5 411.5C363.5 409.153 365.198 407.5 367 407.5C368.802 407.5 370.5 409.153 370.5 411.5Z" stroke="#0E034F" stroke-width="3"/>
<path d="M370.5 511.5C370.5 513.847 368.802 515.5 367 515.5C365.198 515.5 363.5 513.847 363.5 511.5C363.5 509.153 365.198 507.5 367 507.5C368.802 507.5 370.5 509.153 370.5 511.5Z" stroke="#0E034F" stroke-width="3"/>
</svg>
