<svg width="36" height="558" viewBox="0 0 36 558" fill="none" xmlns="http://www.w3.org/2000/svg">
<path d="M35.0006 2.50018C35.0006 2.50018 13.0005 -3.00015 5.50115 15.4998C-1.9982 33.9997 5.50062 557.5 5.50062 557.5" stroke="#0E034F" stroke-width="3"/>
<path d="M27.5 18.5C27.5 20.8469 25.8017 22.5 24 22.5C22.1983 22.5 20.5 20.8469 20.5 18.5C20.5 16.1531 22.1983 14.5 24 14.5C25.8017 14.5 27.5 16.1531 27.5 18.5Z" stroke="#0E034F" stroke-width="3"/>
<path d="M27.5 118.5C27.5 120.847 25.8017 122.5 24 122.5C22.1983 122.5 20.5 120.847 20.5 118.5C20.5 116.153 22.1983 114.5 24 114.5C25.8017 114.5 27.5 116.153 27.5 118.5Z" stroke="#0E034F" stroke-width="3"/>
<path d="M27.5 218.5C27.5 220.847 25.8017 222.5 24 222.5C22.1983 222.5 20.5 220.847 20.5 218.5C20.5 216.153 22.1983 214.5 24 214.5C25.8017 214.5 27.5 216.153 27.5 218.5Z" stroke="#0E034F" stroke-width="3"/>
<path d="M27.5 318.5C27.5 320.847 25.8017 322.5 24 322.5C22.1983 322.5 20.5 320.847 20.5 318.5C20.5 316.153 22.1983 314.5 24 314.5C25.8017 314.5 27.5 316.153 27.5 318.5Z" stroke="#0E034F" stroke-width="3"/>
<path d="M27.5 418.5C27.5 420.847 25.8017 422.5 24 422.5C22.1983 422.5 20.5 420.847 20.5 418.5C20.5 416.153 22.1983 414.5 24 414.5C25.8017 414.5 27.5 416.153 27.5 418.5Z" stroke="#0E034F" stroke-width="3"/>
</svg>
