<svg width="213" height="139" viewBox="0 0 213 139" fill="none" xmlns="http://www.w3.org/2000/svg">
<path d="M41 18.0001L2 49.5C9.2 60.7 48.5 137 56 137C63.5 137 99.5 95 99.5 95C99.5 95 77 81.5 63.5 71C50 60.5 41 43.5001 41 43.5001M41 18.0001C52.5 9.5 58.5 2.00003 110 2C147.5 1.99998 165 9.50002 173 19.5001M41 18.0001C33.8 25.6001 36.8333 38.8334 41 43.5001M173 19.5001L211 49.5C196 78.1667 160.5 139.5 155 137C148.355 133.979 130.667 109.5 122 95C122 95 145 81.5 157 71C169 60.5 173 42 173 42M173 19.5001C174.333 23.3335 175.5 32 173 42M173 42C173 42 149.5 23.5 110 24C70.5 24.5 41 43.5001 41 43.5001" stroke="#0E034F" stroke-width="3"/>
</svg>
