<svg width="213" height="139" viewBox="0 0 213 139" fill="none" xmlns="http://www.w3.org/2000/svg">
<path d="M41 18.0001L2 49.5C9.2 60.7 24.5 137 56 137C87.5 137 82 107.5 99.5 95C88.5 89 77 81.5 63.5 71C50 60.5 41 43.5001 41 43.5001M41 18.0001C54.5 11.1668 58.5 2 110 2C149.5 2 169.696 12.0001 173 21.5001M41 18.0001C33.8 25.6001 36.8333 38.8334 41 43.5001M173 21.5001L211 49.5C196 78.1667 185.5 137 157 137C128.5 137 130.667 109.5 122 95C122 95 145 81.5 157 71C169 60.5 173 40 173 40M173 21.5001C174.333 25.3335 173 30.4001 173 40M173 40C173 40 149.5 23.5 110 24C70.5 24.5 41 43.5001 41 43.5001" stroke="#0E034F" stroke-width="3"/>
</svg>
