<svg width="735" height="858" viewBox="0 0 735 858" fill="none" xmlns="http://www.w3.org/2000/svg">
<path d="M298.18 18.0001L259.18 49.5C266.38 60.7 305.68 137 313.18 137C320.68 137 356.68 95 356.68 95C356.68 95 334.18 81.5 320.68 71C307.18 60.5 298.18 43.5001 298.18 43.5001M298.18 18.0001C309.68 9.5 315.68 2.00003 367.18 2C404.68 1.99998 422.18 9.50002 430.18 19.5001M298.18 18.0001C290.98 25.6001 294.013 38.8334 298.18 43.5001M430.18 19.5001L468.18 49.5C453.18 78.1667 417.68 139.5 412.18 137C405.535 133.979 387.846 109.5 379.18 95C379.18 95 402.18 81.5 414.18 71C426.18 60.5 430.18 42 430.18 42M430.18 19.5001C431.513 23.3335 432.68 32 430.18 42M430.18 42C430.18 42 406.68 23.5 367.18 24C327.68 24.5 298.18 43.5001 298.18 43.5001" stroke="#0E034F" stroke-width="3"/>
</svg>
