<svg width="735" height="858" viewBox="0 0 735 858" fill="none" xmlns="http://www.w3.org/2000/svg">
<path d="M298.18 18.0001L259.18 49.5C266.38 60.7 281.68 137 313.18 137C344.68 137 339.18 107.5 356.68 95C345.68 89 334.18 81.5 320.68 71C307.18 60.5 298.18 43.5001 298.18 43.5001M298.18 18.0001C311.68 11.1668 315.68 2 367.18 2C406.68 2 426.875 12.0001 430.18 21.5001M298.18 18.0001C290.98 25.6001 294.013 38.8334 298.18 43.5001M430.18 21.5001L468.18 49.5C453.18 78.1667 442.68 137 414.18 137C385.68 137 387.846 109.5 379.18 95C379.18 95 402.18 81.5 414.18 71C426.18 60.5 430.18 40 430.18 40M430.18 21.5001C431.513 25.3335 430.18 30.4001 430.18 40M430.18 40C430.18 40 406.68 23.5 367.18 24C327.68 24.5 298.18 43.5001 298.18 43.5001" stroke="#0E034F" stroke-width="3"/>
</svg>
