<svg width="304" height="273" viewBox="0 0 304 273" fill="none" xmlns="http://www.w3.org/2000/svg">
<path d="M193.441 21.9561C193.441 21.9561 227.146 27.4543 239.198 34.785C251.25 42.1157 307.875 118.804 301.502 177.125C295.128 235.446 290.675 264.009 289.245 271C289.245 271 246.143 271 242.875 267.742C239.607 264.484 248.799 148.209 248.799 148.209C248.867 156.151 247.696 152.648 239.198 130.493C235.137 119.904 240.628 212.761 238.381 267.742M64.9529 267.742L61.6845 130.493C58.348 137.824 51.6751 148.616 51.0623 144.34C50.1353 137.871 51.0623 150.856 51.0623 150.856L60.0501 259.393C60.0501 259.393 22.6682 267.742 17.1527 267.742C6.87096 230.477 -2.66735 151.987 4.48777 122.144C12.2504 89.7662 13.8845 70.6246 58.4161 34.785C64.9529 29.5241 107.033 21.9561 107.033 21.9561" stroke="#0E034F" stroke-width="3"/>
<path d="M238.79 268.353C182.274 269.575 71.6939 271.285 65.1572 268.353" stroke="#0E034F" stroke-width="3"/>
<path d="M123.579 8.51632L107.646 21.3452C110.588 25.9066 116.838 56.9811 129.708 56.9811C142.577 56.9811 140.33 44.9667 147.479 39.8759C142.985 37.4323 138.287 34.3778 132.772 30.1015C127.256 25.8252 123.579 18.9016 123.579 18.9016M123.579 8.51632C129.095 5.73332 130.729 2 151.769 2C167.907 2 176.158 6.07271 177.508 9.94176M123.579 8.51632C120.638 11.6116 121.877 17.0011 123.579 18.9016M177.508 9.94176L193.032 21.3452C186.904 33.0202 182.614 56.9811 170.971 56.9811C159.327 56.9811 160.212 45.7813 156.672 39.8759C156.672 39.8759 166.068 34.3778 170.971 30.1015C175.873 25.8252 177.508 17.4762 177.508 17.4762M177.508 9.94176C178.052 11.503 177.508 13.5664 177.508 17.4762M177.508 17.4762C177.508 17.4762 167.907 10.7563 151.769 10.9599C135.631 11.1635 123.579 18.9016 123.579 18.9016" stroke="#0E034F" stroke-width="3"/>
<path d="M156.263 40.8941C156.263 40.8941 147.275 38.654 144.211 46.1884C141.148 53.7229 144.211 266.927 144.211 266.927" stroke="#0E034F" stroke-width="3"/>
<mask id="path-5-inside-1_2306_534614" fill="white">
<ellipse cx="151.769" cy="47.4104" rx="2.04273" ry="2.23997"/>
</mask>
<path d="M150.812 47.4104C150.812 47.2877 150.858 47.125 150.997 46.9728C151.14 46.8161 151.41 46.6504 151.769 46.6504V52.6504C154.808 52.6504 156.812 50.0381 156.812 47.4104H150.812ZM151.769 46.6504C152.128 46.6504 152.398 46.8161 152.541 46.9728C152.68 47.125 152.726 47.2877 152.726 47.4104H146.726C146.726 50.0381 148.73 52.6504 151.769 52.6504V46.6504ZM152.726 47.4104C152.726 47.5331 152.68 47.6958 152.541 47.848C152.398 48.0047 152.128 48.1704 151.769 48.1704V42.1704C148.73 42.1704 146.726 44.7827 146.726 47.4104H152.726ZM151.769 48.1704C151.41 48.1704 151.14 48.0047 150.997 47.848C150.858 47.6958 150.812 47.5331 150.812 47.4104H156.812C156.812 44.7827 154.808 42.1704 151.769 42.1704V48.1704Z" fill="#0E034F" mask="url(#path-5-inside-1_2306_534614)"/>
<mask id="path-7-inside-2_2306_534614" fill="white">
<ellipse cx="151.769" cy="88.1371" rx="2.04273" ry="2.23997"/>
</mask>
<path d="M150.812 88.1371C150.812 88.0144 150.858 87.8517 150.997 87.6995C151.14 87.5427 151.41 87.377 151.769 87.377V93.377C154.808 93.377 156.812 90.7648 156.812 88.1371H150.812ZM151.769 87.377C152.128 87.377 152.398 87.5427 152.541 87.6995C152.68 87.8517 152.726 88.0144 152.726 88.1371H146.726C146.726 90.7648 148.73 93.377 151.769 93.377V87.377ZM152.726 88.1371C152.726 88.2598 152.68 88.4225 152.541 88.5746C152.398 88.7314 152.128 88.8971 151.769 88.8971V82.8971C148.73 82.8971 146.726 85.5093 146.726 88.1371H152.726ZM151.769 88.8971C151.41 88.8971 151.14 88.7314 150.997 88.5746C150.858 88.4225 150.812 88.2598 150.812 88.1371H156.812C156.812 85.5093 154.808 82.8971 151.769 82.8971V88.8971Z" fill="#0E034F" mask="url(#path-7-inside-2_2306_534614)"/>
<mask id="path-9-inside-3_2306_534614" fill="white">
<ellipse cx="151.769" cy="128.864" rx="2.04273" ry="2.23997"/>
</mask>
<path d="M150.812 128.864C150.812 128.741 150.858 128.578 150.997 128.426C151.14 128.27 151.41 128.104 151.769 128.104V134.104C154.808 134.104 156.812 131.492 156.812 128.864H150.812ZM151.769 128.104C152.128 128.104 152.398 128.27 152.541 128.426C152.68 128.578 152.726 128.741 152.726 128.864H146.726C146.726 131.492 148.73 134.104 151.769 134.104V128.104ZM152.726 128.864C152.726 128.987 152.68 129.149 152.541 129.301C152.398 129.458 152.128 129.624 151.769 129.624V123.624C148.73 123.624 146.726 126.236 146.726 128.864H152.726ZM151.769 129.624C151.41 129.624 151.14 129.458 150.997 129.301C150.858 129.149 150.812 128.987 150.812 128.864H156.812C156.812 126.236 154.808 123.624 151.769 123.624V129.624Z" fill="#0E034F" mask="url(#path-9-inside-3_2306_534614)"/>
<mask id="path-11-inside-4_2306_534614" fill="white">
<ellipse cx="151.769" cy="169.591" rx="2.04273" ry="2.23997"/>
</mask>
<path d="M150.812 169.591C150.812 169.468 150.858 169.305 150.997 169.153C151.14 168.996 151.41 168.831 151.769 168.831V174.831C154.808 174.831 156.812 172.218 156.812 169.591H150.812ZM151.769 168.831C152.128 168.831 152.398 168.996 152.541 169.153C152.68 169.305 152.726 169.468 152.726 169.591H146.726C146.726 172.218 148.73 174.831 151.769 174.831V168.831ZM152.726 169.591C152.726 169.713 152.68 169.876 152.541 170.028C152.398 170.185 152.128 170.351 151.769 170.351V164.351C148.73 164.351 146.726 166.963 146.726 169.591H152.726ZM151.769 170.351C151.41 170.351 151.14 170.185 150.997 170.028C150.858 169.876 150.812 169.713 150.812 169.591H156.812C156.812 166.963 154.808 164.351 151.769 164.351V170.351Z" fill="#0E034F" mask="url(#path-11-inside-4_2306_534614)"/>
<mask id="path-13-inside-5_2306_534614" fill="white">
<ellipse cx="151.769" cy="210.317" rx="2.04273" ry="2.23997"/>
</mask>
<path d="M150.812 210.317C150.812 210.195 150.858 210.032 150.997 209.88C151.14 209.723 151.41 209.557 151.769 209.557V215.557C154.808 215.557 156.812 212.945 156.812 210.317H150.812ZM151.769 209.557C152.128 209.557 152.398 209.723 152.541 209.88C152.68 210.032 152.726 210.195 152.726 210.317H146.726C146.726 212.945 148.73 215.557 151.769 215.557V209.557ZM152.726 210.317C152.726 210.44 152.68 210.603 152.541 210.755C152.398 210.912 152.128 211.077 151.769 211.077V205.077C148.73 205.077 146.726 207.69 146.726 210.317H152.726ZM151.769 211.077C151.41 211.077 151.14 210.912 150.997 210.755C150.858 210.603 150.812 210.44 150.812 210.317H156.812C156.812 207.69 154.808 205.077 151.769 205.077V211.077Z" fill="#0E034F" mask="url(#path-13-inside-5_2306_534614)"/>
<path d="M124.805 212.15H80.682V259.8H124.805V212.15Z" stroke="#0E034F" stroke-width="3" stroke-dasharray="6 6"/>
<path d="M215.094 212.15H170.971V259.8H215.094V212.15Z" stroke="#0E034F" stroke-width="3" stroke-dasharray="6 6"/>
<path d="M215.094 91.1917H177.916V133.955H215.094V91.1917Z" stroke="#0E034F" stroke-width="3" stroke-dasharray="6 6"/>
</svg>
